<svg id="Groupe_2" data-name="Groupe 2" xmlns="http://www.w3.org/2000/svg" width="512" height="512" viewBox="0 0 512 512">
  <defs>
    <style>
      .cls-1 {
        fill: #0080ff;
      }

      .cls-2 {
        fill: #f2f2f2;
        fill-rule: evenodd;
      }
    </style>
  </defs>
  <rect id="Rectangle_arrondi_1" data-name="Rectangle arrondi 1" class="cls-1" width="512" height="512" rx="20" ry="20"/>
  <path id="ksm_1" data-name="ksm 1" class="cls-2" d="M307.656,26.256h2.813l-1.406,2.111-5.626,3.518c35.878-1.7,58.851,5.839,85.08,17.591v0.7c-9.48-1.6-26.618-9.35-36.563-5.629l0.7,1.407c29.626,2.826,71.63,27.895,85.783,47.145-14.4-5.729-27.559-15.966-43.594-21.11v0.7q0.351,0.7.7,1.407c19.172,7.082,53.547,43.415,61.173,62.626-9.633-7.5-17.479-18.195-29.532-23.221v0.7c13.48,13.851,28.074,30.853,34.454,51.367-8.14-7.163-12.183-19.764-22.5-24.628v0.7c11.808,24.225,26.6,45.6,34.454,73.884l-1.406-.7-14.063-16.888c9.7,26.25,9.908,63.76,15.469,93.587l-3.516-2.111v0.7c11.069,33.232,18.343,69.032,17.579,113.289q-0.353,14.073-.7,28.147c-5.427-105.624-30.17-163.081-110.393-194.21-23.061-8.948-49.171-7.375-78.049-11.962-17-2.7-81.77-8.223-95.626-2.815l0.7,1.408,21.094,4.221H223.28l-14.063,3.519v2.111c18.982,1.8,41.421,18.683,45,35.886h-0.7c-4.086-6.663-13-12.909-21.095-15.48,2.618,15.513,7.291,30.5,4.219,48.552q-0.351-.7-0.7-1.407c-2.8-7.155-2.174-15.513-7.031-20.406h-0.7l-1.407,5.629h-0.7c-0.38-7.38-4.228-15.153-8.437-19h-0.7q0.353,0.7.7,1.408c-0.953,11.157-2.55,25.4-10.548,31.664q0.353-3.165.7-6.333l-1.407.7c-8.331,20.153-33.217,36.744-41.485,61.218l5.625-.7c-1.5,8.676-7.283,17.339-4.922,26.739l7.032,0.7q-4.57,10.2-9.141,20.406l0.7,1.408,9.141-2.111v0.7q-10.2,13.368-20.391,26.739v0.7c7.683-1.085,12.8-6.625,18.985-9.851-6.021,12.987-51.872,55.367-64.689,64.736,11.383-59.511,34.774-111.443,62.579-155.508,6.472-10.257,32.047-44.765,24.61-63.329l-6.328,4.925c0.211-5.831.355-8.558-.7-13.369h-0.7l-6.328,4.925c1.168-4.1,2.007-7.37.7-10.554-8.369-3.82-16-11.979-26.719-13.37L129.059,245.8C110.127,251,91.9,252.138,71.4,256.352c-5.294,1.088-14.6,4.234-20.391,2.111h1.406c8.509-5.481,20.209-6.816,30.938-9.851L161.4,228.205c18.243-4.949,41.265-6.63,51.33-19.7v-0.7l-16.173,3.519q0.352-.7.7-1.408c10.594-3.384,34.93-15.892,31.642-30.257-1.4.464-83.893,0.436-85.08,0h1.406l32.345-12.666v-0.7a138.459,138.459,0,0,1-33.751-12.666c-30.309,12.3-99.384,65.405-111.1,93.586h0.7c16.914-6.9,33.517-16.683,52.032-22.517,43.675-13.76,92.462-24.233,135-38l-0.7,1.407c-65.4,21.4-129.682,45.983-195.473,66.144C40.2,222.5,72.963,193.534,100.23,172.616c7.443-5.709,35.446-20.62,38.673-27.442-9.213-6.419,10.879-44.568,13.36-48.553,17.078-27.433,45.1-47.857,78.751-58.4l42.892-11.258-2.813,4.222Zm-47.11,80.217c-12.232,5.171-23.942,6.139-28.829,18.3l-2.812,15.48-8.438,7.74c15.314,0.157,17.641,5.846,27.423,9.852,26.693,10.93,42.732-11.9,47.11-32.369C282.266,119.249,279.848,108.338,260.546,106.473Zm-1.406,6.333c27.207,0.519,28.5,36.31,5.625,40.812-14.495,2.852-30.719-15.318-23.2-29.554C245.07,117.418,251.64,115.729,259.14,112.806Zm9.141,4.222q-2.11,3.165-4.219,6.332c0.874,3.832,2.305,4.513,4.219,7.037,4.456-.81,4.679-2.262,6.328-5.629C273.105,121.085,271.854,118.687,268.281,117.028ZM142.419,180.357h0ZM206.4,300.682q0.353,0.7.7,1.408Q206.756,301.386,206.4,300.682ZM462.347,381.6c5.917,7.865,13.369,53.044,7.031,67.551-2.157-14.809-15.622-48.793-11.25-62.625v1.407q2.462,7.035,4.922,14.073h1.406Q463.4,391.808,462.347,381.6Zm-44.3,27.443,0.7,1.407Zm0.7,1.407c9.761,10.282,11.421,30.716,16.876,45.034-11.129-5.868-21.439-27.969-23.2-42.923l1.406,0.7,7.032,11.258h0.7Q420.158,417.491,418.752,410.453Zm-7.031.7,0.7,1.407ZM185.31,425.933c2.17,1.5-4.4,10.523-5.625,14.074h0.7l15.469-12.666c-6.087,13.883-25.058,33.175-40.079,38Z"/>
</svg>
