<svg xmlns="http://www.w3.org/2000/svg" width="512" height="512" viewBox="0 0 512 512">
  <defs>
    <style>
      .cls-1 {
        fill: #0080ff;
      }

      .cls-2 {
        fill: #f2f2f2;
        fill-rule: evenodd;
      }
    </style>
  </defs>
  <circle class="cls-1" cx="256" cy="256" r="254"/>
  <path id="ksm_1" data-name="ksm 1" class="cls-2" d="M277.072,80h2.154l-1.077,1.617-4.309,2.7c27.484-1.3,45.083,4.473,65.177,13.476v0.539c-7.263-1.223-20.392-7.162-28.01-4.312l0.538,1.078c22.7,2.165,54.874,21.369,65.716,36.116-11.034-4.389-21.112-12.231-33.4-16.171v0.539q0.268,0.538.538,1.078c14.687,5.425,41.021,33.258,46.863,47.975-7.379-5.743-13.39-13.938-22.623-17.789v0.539c10.326,10.612,21.507,23.636,26.394,39.351-6.236-5.487-9.334-15.141-17.237-18.867V168.4c9.045,18.559,20.38,34.932,26.394,56.6l-1.078-.539-10.773-12.938c7.431,20.11,7.59,48.844,11.851,71.694l-2.694-1.617v0.539a251.817,251.817,0,0,1,13.467,86.787q-0.27,10.779-.539,21.562c-4.157-80.915-23.112-124.931-84.568-148.778-17.667-6.855-37.669-5.65-59.791-9.164-13.025-2.069-62.641-6.3-73.256-2.156l0.538,1.078,16.16,3.235h-1.077L201.661,237.4v1.617c14.541,1.381,31.731,14.313,34.473,27.491H235.6c-3.13-5.1-9.958-9.889-16.16-11.859,2,11.884,5.585,23.363,3.232,37.195q-0.27-.54-0.539-1.078c-2.146-5.481-1.665-11.885-5.386-15.633H216.2l-1.077,4.313h-0.539c-0.291-5.654-3.239-11.609-6.464-14.555h-0.538q0.268,0.54.538,1.078c-0.729,8.548-1.953,19.458-8.079,24.258q0.268-2.426.538-4.852l-1.077.539c-6.382,15.439-25.447,28.149-31.781,46.9l4.31-.54c-1.148,6.647-5.58,13.284-3.771,20.484l5.387,0.539-7,15.633,0.539,1.078,7-1.617v0.539l-15.621,20.484v0.539c5.886-.831,9.8-5.075,14.544-7.547-4.612,9.949-39.737,42.415-49.556,49.593,8.72-45.59,26.639-85.374,47.94-119.13,4.958-7.858,24.55-34.293,18.853-48.515l-4.848,3.774c0.162-4.467.272-6.557-.539-10.242h-0.538l-4.848,3.773c0.894-3.138,1.537-5.646.538-8.086-6.411-2.926-12.257-9.176-20.468-10.242l-19.392,4.852c-14.5,3.988-28.464,4.857-44.169,8.086-4.055.833-11.183,3.243-15.621,1.617h1.077c6.519-4.2,15.482-5.222,23.7-7.547l59.79-15.632c13.975-3.792,31.612-5.08,39.322-15.094v-0.539l-12.389,2.7q0.268-.539.538-1.078c8.116-2.592,26.759-12.175,24.24-23.179-1.069.356-64.268,0.334-65.177,0h1.077l24.778-9.7v-0.539a106.027,106.027,0,0,1-25.855-9.7c-23.219,9.419-76.135,50.1-85.107,71.694H67c12.957-5.285,25.676-12.781,39.86-17.25,33.458-10.541,70.831-18.564,103.421-29.108q-0.27.538-.539,1.078c-50.1,16.4-99.345,35.226-149.745,50.67,12.19-24.315,37.286-46.5,58.175-62.529,5.7-4.374,27.153-15.8,29.625-21.023-7.057-4.917,8.335-34.143,10.235-37.195,13.083-21.016,34.552-36.662,60.329-44.741l32.857-8.625-2.154,3.234Zm-36.09,61.452c-9.371,3.961-18.341,4.7-22.085,14.015q-1.077,5.929-2.154,11.859l-6.464,5.93c11.731,0.119,13.514,4.478,21.007,7.547,20.45,8.373,32.737-9.116,36.09-24.8C257.621,151.24,255.768,142.881,240.982,141.452Zm-1.077,4.851c20.842,0.4,21.833,27.816,4.309,31.265-11.1,2.186-23.532-11.734-17.776-22.64C229.126,149.837,234.159,148.543,239.905,146.3Zm7,3.235q-1.615,2.425-3.232,4.851c0.67,2.935,1.766,3.457,3.232,5.391,3.414-.621,3.585-1.733,4.848-4.313C250.6,152.646,249.645,150.809,246.907,149.538Zm-96.418,48.514h0Zm49.017,92.178,0.539,1.078Zm196.069,61.99c4.533,6.025,10.242,40.636,5.387,51.749-1.653-11.345-11.968-37.378-8.619-47.975v1.078l3.771,10.781h1.077Q396.384,360.037,395.575,352.22ZM361.64,373.243l0.539,1.078Zm0.539,1.078c7.477,7.877,8.749,23.531,12.927,34.5-8.525-4.5-16.423-21.427-17.775-32.882l1.077,0.539q2.694,4.311,5.387,8.624h0.538Zm-5.387.539,0.539,1.079ZM183.346,386.18c1.662,1.145-3.373,8.061-4.309,10.781h0.539l11.85-9.7c-4.663,10.635-19.2,25.414-30.7,29.108Q172.033,401.275,183.346,386.18Z"/>
</svg>
