<svg xmlns="http://www.w3.org/2000/svg" width="2133" height="1920" viewBox="0 0 2133 1920">
  <defs>
    <style>
      .cls-1 {
        fill: #0080ff;
        fill-rule: evenodd;
      }
    </style>
  </defs>
  <path id="ksm-i_1" data-name="ksm-i 1" class="cls-1" d="M1331.43,29.933h16.86c-7.33,13.433-20.58,15.682-30.76,25.8,116.32-1.57,213.76,10.034,297.67,42.667q45.645,18.85,91.29,37.706l-0.99,3.969h-1c-28.35-13.367-129.95-39.555-165.7-25.8l0.99,2.977c2.25,1.853,1.4,1.8,4.96,2.977,26.24,6.722,51.47,8.357,75.41,15.876,88.86,27.907,163.9,71.584,231.19,121.054,24.51,18.018,70.04,50.506,82.36,78.388h-0.99c-43.5-18.888-83.88-40.166-124.03-63.5-21.15-12.289-46.5-26.462-73.43-31.752,3.32,13.649,17.24,13.692,27.79,19.845,23.6,13.775,45.34,30.183,66.47,46.635,57.81,45,108.18,103.485,150.82,163.722,13.46,19.007,30.68,39.836,37.71,64.5h-0.99c-39.21-28.786-81.88-92.427-132.96-104.186,4.12,16.533,42.87,46.762,54.57,61.519,35.74,45.09,90.34,110.253,102.2,175.628-40.78-31.261-53.19-87.954-102.2-112.124v3.969q54.075,102.687,108.15,205.4c18.76,42.543,32.81,85.508,49.61,131.969-25.11-8.935-48.31-61-70.44-78.388,29.7,78.732,32.09,172.082,48.62,267.909q5.94,50.6,11.9,101.21-11.91,29.76-23.81,59.53c-31.51,74.01-66.88,140-110.14,201.43-146.51,208.04-344.33,355.37-622.13,432.62-218.9,60.87-490.677,27.34-667.767-45.64-38.862-16.02-75.769-31.51-110.138-51.6l-26.79-14.88c53.122-137.96,124.5-260.67,198.446-378.05,42.561-67.56,111.987-147.06,93.269-256.99q-14.882,10.41-29.767,20.83a506.063,506.063,0,0,0-2.976-60.52H781.73q-14.882,10.905-29.767,21.83c5.214-13.46,6.748-31.01,3.969-47.63-32.163-10.45-85.7-66.27-124.029-61.52q-75.4,19.35-150.818,38.7l-170.664,27.78q-52.086,11.415-104.184,22.82c-47.052,9.53-146.359,5.64-169.671-20.84,14.928-46.86,58.9-94.8,87.316-130.973,72.218-91.934,170.976-181.064,266.91-249.055,43.411-30.766,147.2-77.356,170.663-120.062-12.95-16.933-12.214-45.359-4.961-69.457C572.524,452.951,594,403.131,620,359.36,693.545,235.532,806.564,151.946,948.425,96.414c34.921-13.67,73.445-19.533,111.125-30.76L1180.61,33.9l-11.91,17.86v0.992h0.99ZM1118.1,398.057c-33.07,20.395-76.12,23.628-105.18,46.636-22.3,17.653-26.822,45.814-33.736,79.38l-3.969,27.783-38.7,36.713c62.349-.634,85.562,29.423,128,46.636,89.82,36.431,150.17-17.92,183.56-73.426,7.43-12.362,33.53-63.219,27.78-78.388-15.92-5.065-26.9-17.452-38.7-26.791C1204.52,430.76,1175.23,399.263,1118.1,398.057Zm-5.96,28.776c123.31-1.314,134.43,168.1,20.84,188.527-61,10.97-128.79-70.029-104.18-129.985C1044.37,447.417,1078.86,447.062,1112.14,426.833Zm42.67,19.845q-9.435,14.385-18.85,28.775c2.09,13.388,10.86,25.038,19.84,31.752,15.64-2.02,26.2-11.927,27.78-27.783C1175.21,465.755,1171.45,452.1,1154.81,446.678Z"/>
</svg>
