<svg id="Groupe_5" data-name="Groupe 5" xmlns="http://www.w3.org/2000/svg" width="500" height="500" viewBox="0 0 500 500">
  <defs>
    <style>
      .cls-1 {
        fill: #fff;
        fill-rule: evenodd;
      }
    </style>
  </defs>
  <path id="Forme_1" data-name="Forme 1" class="cls-1" d="M25.018,70.828H94.411V3.71h118.31V70.828h79.632v58.018s-2.462,46.794-11.376,83.044-32.99,86.458-32.99,86.458,42.46,34.627,68.256,67.118,34.128,47.78,34.128,47.78L276.427,491.74s-39.41-53.007-48.917-63.706-38.678-36.4-38.678-36.4S167.37,420.2,138.777,445.1,73.934,496.29,73.934,496.29L-0.01,416.658s68.285-48.916,108.072-102.384S166.08,202.79,166.08,202.79l6.825-29.578H25.018V70.828Z"/>
  <path class="cls-1" d="M381.684,3.708H500V496.292H381.684V3.708Z"/>
</svg>
